# xmcd
#
# Track frame offsets: 
#        150
#        28593
#        49646
#        74104
#        97479
#        120039
#        134619
#
# Disc length: 2153 seconds
#
# Revision: 0
# Processed by: cddbd v1.5.2PL0 Copyright (c) Steve Scherf et al.
# Submitted via: ExactAudioCopy v0.99pb4
#
DISCID=65086707
DTITLE=Norma Jean - Norma Jean
DYEAR=1978
DGENRE=R&B
TTITLE0=Saturday
TTITLE1=Having A Party
TTITLE2=I Believe In You
TTITLE3=Sorcerer
TTITLE4=So I Get Hurt Again
TTITLE5=This Is The Love
TTITLE6=I Like Love
EXTD=
EXTT0=
EXTT1=
EXTT2=
EXTT3=
EXTT4=
EXTT5=
EXTT6=
PLAYORDER=
